<?xml version="1.0" encoding="iso-8859-1"?>
<!-- Generator: Adobe Illustrator 19.0.0, SVG Export Plug-In . SVG Version: 6.00 Build 0)  -->
<svg version="1.1" id="Layer_1" xmlns="http://www.w3.org/2000/svg" xmlns:xlink="http://www.w3.org/1999/xlink" x="0px" y="0px"
	 viewBox="0 0 512 512" style="enable-background:new 0 0 512 512;" xml:space="preserve">
<circle style="fill:#273B7A;" cx="256" cy="256" r="256"/>
<path style="fill:#121149;" d="M336.165,499.179c88.962-29.31,156.355-106.063,172.244-200.321L368.321,158.77l-91.982,80.791
	l-43.036-43.036l-84.59-11.978l114.002,114.002l-114.002,13.178L336.165,499.179z"/>
<ellipse style="fill:#FEE187;" cx="164.685" cy="168.357" rx="22.462" ry="23.047"/>
<ellipse style="fill:#FFC61B;" cx="347.901" cy="168.357" rx="22.462" ry="23.047"/>
<path style="fill:#E09112;" d="M256,386.855c4.668-19.254,51.343-39.091,102.103-71.18s-15.753-153.447-42.593-179.119
	c-26.839-25.672-59.511,0-59.511,0s-32.673-25.672-59.511,0s-93.351,147.028-42.593,179.119S251.332,367.6,256,386.855z"/>
<path style="fill:#FF5419;" d="M315.511,136.556c-26.834-25.667-59.501-0.009-59.511,0v250.297
	c4.67-19.253,51.345-39.09,102.103-71.178C408.864,283.584,342.35,162.226,315.511,136.556z"/>
<path style="fill:#FFEDB5;" d="M258.424,322.877c22.171,0.583,27.351-22.373,27.351-22.373
	c13.933-11.669-1.679-26.839,15.241-37.924c16.92-11.085,14.003-46.676,4.084-59.511c-9.919-12.836-24.505-4.668-29.756,2.334
	c-5.251,7.001-18.132,6.539-18.132,6.539s-12.881,0.462-18.132-6.539c-5.251-7.001-19.837-15.17-29.756-2.334
	c-9.919,12.836-12.836,48.426,4.084,59.511c16.92,11.085,1.308,26.255,15.241,37.924c0,0,5.18,22.956,27.351,22.373H258.424z"/>
<path style="fill:#FEE187;" d="M305.099,203.067c-9.919-12.836-24.505-4.668-29.756,2.334c-5.251,7.003-18.132,6.539-18.132,6.539
	s-0.45,0.016-1.212-0.003v110.94h2.422c22.171,0.583,27.351-22.373,27.351-22.373c13.933-11.669-1.679-26.839,15.241-37.924
	C317.933,251.495,315.018,215.904,305.099,203.067z"/>
<path style="fill:#59595B;" d="M267.136,259.603h-22.275c-3.213,0-5.13,2.853-3.351,4.987l13.89,16.66l15-16.558
	C272.324,262.57,270.42,259.603,267.136,259.603z"/>
<path style="fill:#272525;" d="M267.136,259.603h-11.281v21.144l14.543-16.053C272.324,262.57,270.42,259.603,267.136,259.603z"/>
<circle style="fill:#59595B;" cx="232.227" cy="242.123" r="5.265"/>
<circle cx="279.773" cy="242.123" r="5.265"/>
<g>
</g>
<g>
</g>
<g>
</g>
<g>
</g>
<g>
</g>
<g>
</g>
<g>
</g>
<g>
</g>
<g>
</g>
<g>
</g>
<g>
</g>
<g>
</g>
<g>
</g>
<g>
</g>
<g>
</g>
</svg>
